HIERARCHY
ROOT Hips
{
	OFFSET 0.000000 0.000000 0.000000
	CHANNELS 6 Xposition Yposition Zposition Zrotation Yrotation Xrotation 
	JOINT LHipJoint
	{
		OFFSET 0.000000 0.000000 0.000000
		CHANNELS 3 Zrotation Yrotation Xrotation
		JOINT LeftUpLeg
		{
			OFFSET 1.363060 -1.794630 0.839290
			CHANNELS 3 Zrotation Yrotation Xrotation
			JOINT LeftLeg
			{
				OFFSET 2.448110 -6.726130 0.000000
				CHANNELS 3 Zrotation Yrotation Xrotation
				JOINT LeftFoot
				{
					OFFSET 2.562200 -7.039590 0.000000
					CHANNELS 3 Zrotation Yrotation Xrotation
					JOINT LeftToeBase
					{
						OFFSET 0.157640 -0.433110 2.322550
						CHANNELS 3 Zrotation Yrotation Xrotation
						End Site
						{
							OFFSET 0.000000 0.000000 0.000000
						}
					}
				}
			}
		}
	}
	JOINT RHipJoint
	{
		OFFSET 0.000000 0.000000 0.000000
		CHANNELS 3 Zrotation Yrotation Xrotation
		JOINT RightUpLeg
		{
			OFFSET -1.305520 -1.794630 0.839290
			CHANNELS 3 Zrotation Yrotation Xrotation
			JOINT RightLeg
			{
				OFFSET -2.542530 -6.985550 0.000000
				CHANNELS 3 Zrotation Yrotation Xrotation
				JOINT RightFoot
				{
					OFFSET -2.568260 -7.056230 0.000000
					CHANNELS 3 Zrotation Yrotation Xrotation
					JOINT RightToeBase
					{
						OFFSET -0.164730 -0.452590 2.363150
						CHANNELS 3 Zrotation Yrotation Xrotation
						End Site
						{
							OFFSET 0.000000 0.000000 0.000000
						}
					}
				}
			}
		}
	}
	JOINT LowerBack
	{
		OFFSET 0.000000 0.000000 0.000000
		CHANNELS 3 Zrotation Yrotation Xrotation
		JOINT Spine
		{
			OFFSET 0.028270 2.035590 -0.193380
			CHANNELS 3 Zrotation Yrotation Xrotation
			JOINT Spine1
			{
				OFFSET 0.056720 2.048850 -0.042750
				CHANNELS 3 Zrotation Yrotation Xrotation
				JOINT Neck
				{
					OFFSET 0.000000 0.000000 0.000000
					CHANNELS 3 Zrotation Yrotation Xrotation
					JOINT Neck1
					{
						OFFSET -0.054170 1.746240 0.172020
						CHANNELS 3 Zrotation Yrotation Xrotation
						JOINT Head
						{
							OFFSET 0.104070 1.761360 -0.123970
							CHANNELS 3 Zrotation Yrotation Xrotation
							End Site
							{
								OFFSET 0.000000 0.000000 0.000000
							}
						}
					}
				}
				JOINT LeftShoulder
				{
					OFFSET 0.000000 0.000000 0.000000
					CHANNELS 3 Zrotation Yrotation Xrotation
					JOINT LeftArm
					{
						OFFSET 3.362410 1.200890 -0.311210
						CHANNELS 3 Zrotation Yrotation Xrotation
						JOINT LeftForeArm
						{
							OFFSET 4.983000 -0.000000 -0.000000
							CHANNELS 3 Zrotation Yrotation Xrotation
							JOINT LeftHand
							{
								OFFSET 3.483560 -0.000000 -0.000000
								CHANNELS 3 Zrotation Yrotation Xrotation
								JOINT LeftFingerBase
								{
									OFFSET 0.000000 0.000000 0.000000
									CHANNELS 3 Zrotation Yrotation Xrotation
									JOINT LeftHandIndex1
									{
										OFFSET 0.715260 -0.000000 -0.000000
										CHANNELS 3 Zrotation Yrotation Xrotation
										End Site
										{
											OFFSET 0.000000 0.000000 0.000000
										}
									}
								}
								JOINT LThumb
								{
									OFFSET 0.000000 0.000000 0.000000
									CHANNELS 3 Zrotation Yrotation Xrotation
									End Site
									{
										OFFSET 0.000000 0.000000 0.000000
									}
								}
							}
						}
					}
				}
				JOINT RightShoulder
				{
					OFFSET 0.000000 0.000000 0.000000
					CHANNELS 3 Zrotation Yrotation Xrotation
					JOINT RightArm
					{
						OFFSET -3.136600 1.374050 -0.404650
						CHANNELS 3 Zrotation Yrotation Xrotation
						JOINT RightForeArm
						{
							OFFSET -5.241900 -0.000000 -0.000000
							CHANNELS 3 Zrotation Yrotation Xrotation
							JOINT RightHand
							{
								OFFSET -3.444170 -0.000000 -0.000000
								CHANNELS 3 Zrotation Yrotation Xrotation
								JOINT RightFingerBase
								{
									OFFSET 0.000000 0.000000 0.000000
									CHANNELS 3 Zrotation Yrotation Xrotation
									JOINT RightHandIndex1
									{
										OFFSET -0.622530 -0.000000 -0.000000
										CHANNELS 3 Zrotation Yrotation Xrotation
										End Site
										{
											OFFSET 0.000000 0.000000 0.000000
										}
									}
								}
								JOINT RThumb
								{
									OFFSET 0.000000 0.000000 0.000000
									CHANNELS 3 Zrotation Yrotation Xrotation
									End Site
									{
										OFFSET 0.000000 0.000000 0.000000
									}
								}
							}
						}
					}
				}
			}
		}
	}
}
MOTION
Frames: 8
Frame Time: 0.008333
42.474113 17.819627 6.162976 -134.490238 -83.273886 143.666461 -0.484339 -0.635436 -0.784182 -13.617449 -6.058895 -3.082215 -0.263123 3.445249 8.297428 -0.215010 3.244450 -1.367718 0.064400 1.637500 4.504800 -0.434880 1.199904 -1.947273 27.006549 5.071634 -6.166482 -0.494276 -5.701839 14.760826 1.719953 -12.945056 -8.368196 -0.336300 -3.726800 10.309200 1.771239 -1.011386 -0.597297 1.233432 -1.136919 -5.849020 5.733825 -0.773688 -1.784110 -9.738762 -9.197129 -13.371538 6.770948 -11.348121 10.861176 2.916600 -5.529500 8.873300 6.694492 3.196468 0.578809 -93.448966 2.793946 6.350244 8.290332 -25.638949 -2.327388 2.178180 2.124259 32.162586 13.863597 20.350175 3.995100 -7.125000 0.000000 0.000000 -14.098800 47.277400 -0.807700 -3.588233 -3.500473 -1.593667 84.499549 1.779296 16.898647 -9.352833 20.435456 -1.714597 -0.680158 0.226178 13.806017 -12.310080 -22.226795 4.461800 7.125000 0.000000 0.000000 17.592200 -51.890600 -3.063400 
42.486421 17.823796 6.172108 -134.963080 -83.225726 144.255968 -0.497684 -0.650403 -0.799757 -13.639054 -6.189111 -3.254490 -0.259373 3.484182 8.396580 -0.238764 3.385431 -1.416767 0.071200 1.722100 4.738100 -0.447155 1.196904 -1.952948 26.937874 5.064222 -6.488025 -0.513115 -5.775255 14.965730 1.691143 -12.784300 -8.293979 -0.343100 -3.763900 10.413300 1.908229 -1.234417 -0.672443 1.362503 -1.449299 -5.793770 5.976611 -0.922823 -1.603510 -10.225469 -8.977171 -13.771886 6.771813 -10.906982 11.083837 3.061900 -5.345600 9.023600 6.717465 3.195434 0.593949 -93.961664 2.735543 6.075181 8.451992 -25.940263 -2.387337 2.187536 2.183522 31.812633 13.892649 20.594170 4.048900 -7.125000 0.000000 0.000000 -14.131300 47.471200 -0.878400 -3.589843 -3.495279 -1.601512 84.192126 2.151293 17.512456 -9.402626 20.516113 -1.708031 -0.701523 0.214411 14.109560 -12.585267 -23.446519 4.794600 7.125000 0.000000 0.000000 17.935600 -53.089800 -3.663000 
42.460018 17.820024 6.153348 -133.675195 -83.707730 142.815978 -0.492458 -0.651796 -0.798358 -13.858640 -6.100529 -2.989151 -0.265684 3.431207 8.263718 -0.167023 2.963440 -1.187472 0.068400 1.687600 4.643000 -0.442702 1.191027 -1.956450 26.797942 4.826152 -6.010967 -0.475319 -5.632502 14.558963 1.759582 -13.165004 -8.445111 -0.342100 -3.758300 10.397700 1.531721 -1.619641 -0.639185 1.519816 -1.959936 -5.759077 6.549915 -1.160236 -1.517521 -10.668505 -8.782354 -14.039602 6.647006 -10.508763 11.296339 3.142400 -5.195900 9.135000 6.774249 3.173520 0.611669 -94.547345 2.808678 5.316244 8.402742 -25.973724 -2.396176 2.206706 2.185194 32.080502 13.903172 20.510034 4.029700 -7.125000 0.000000 0.000000 -14.088600 47.374200 -0.841300 -3.585752 -3.482800 -1.618689 83.591539 2.267986 18.833918 -9.248599 20.219872 -1.608504 -0.732029 0.133791 13.339938 -10.858651 -26.130079 4.497700 7.125000 0.000000 0.000000 21.098500 -55.226200 -5.475900 
42.472326 17.818039 6.155929 -134.573133 -83.402976 143.836615 -0.507002 -0.664008 -0.808260 -13.659143 -6.106287 -3.139926 -0.264173 3.443387 8.292153 -0.204633 3.183886 -1.332459 0.068000 1.682200 4.628100 -0.461560 1.185423 -1.960718 26.951161 5.106040 -6.261790 -0.497100 -5.723107 14.808396 1.735386 -13.034171 -8.406031 -0.346000 -3.779600 10.457500 1.739726 -1.753257 -0.724008 1.664030 -2.161900 -5.714605 6.813831 -1.254740 -1.369538 -11.101903 -8.475616 -13.930783 6.731606 -9.978555 11.072893 3.336200 -4.974300 8.998300 6.818923 3.179137 0.627699 -95.074322 2.728080 4.772262 8.475123 -26.145719 -2.433239 2.216095 2.220347 31.990407 13.888613 20.597364 4.038900 -7.125000 0.000000 0.000000 -14.113800 47.424900 -0.860900 -3.583960 -3.476946 -1.611625 83.262020 2.536374 19.299816 -9.241403 20.243945 -1.655992 -0.691268 0.212937 13.572477 -12.475883 -23.030141 4.675700 7.125000 0.000000 0.000000 17.824900 -52.679100 -3.456900 
42.472227 17.816550 6.153150 -133.661505 -83.342883 142.935310 -0.507249 -0.673624 -0.814661 -13.498444 -6.114629 -3.113091 -0.265045 3.429347 8.261352 -0.209186 3.208574 -1.328531 0.066200 1.660400 4.568000 -0.466375 1.174169 -1.960219 27.112134 5.129204 -6.277534 -0.498057 -5.734818 14.831131 1.738158 -13.051802 -8.407426 -0.347800 -3.789100 10.484200 1.897263 -1.990560 -0.721973 1.821756 -2.499252 -5.690637 7.124882 -1.416796 -1.304306 -11.551621 -8.254649 -14.007221 6.702686 -9.559181 11.135823 3.469600 -4.813100 9.014200 6.859921 3.164937 0.644103 -95.603621 2.761769 4.207170 8.540525 -26.302685 -2.467211 2.225529 2.245003 31.980632 13.891620 20.620341 4.040600 -7.125000 0.000000 0.000000 -14.105100 47.422300 -0.859400 -3.576458 -3.467927 -1.617884 82.856882 2.711546 20.106013 -9.208599 20.190490 -1.646212 -0.686958 0.218128 13.551659 -12.610667 -22.825836 4.693700 7.125000 0.000000 0.000000 17.593800 -52.513200 -3.337100 
42.459224 17.818436 6.141139 -132.890057 -83.709729 142.118862 -0.501122 -0.663909 -0.801035 -13.688390 -6.200297 -3.030261 -0.267004 3.418963 8.238676 -0.171774 2.986960 -1.219081 0.064200 1.634900 4.497700 -0.452124 1.176257 -1.947995 26.943004 5.057221 -6.054589 -0.476797 -5.650715 14.598116 1.796222 -13.371130 -8.537437 -0.362800 -3.869500 10.709900 1.781856 -2.182358 -0.634408 1.787128 -2.736988 -5.808294 7.010128 -1.538148 -1.639293 -11.586936 -8.105867 -13.617624 6.730856 -9.424918 11.363326 3.519000 -4.769500 9.006500 6.817645 3.121029 0.651328 -95.421552 3.335710 4.546541 8.748713 -26.515392 -2.508333 2.197098 2.255648 31.570040 13.941115 20.592736 4.054700 -7.125000 0.000000 0.000000 -14.046100 47.412600 -0.852200 -3.558676 -3.449671 -1.624982 82.940116 2.179395 20.541028 -9.151654 20.105095 -1.648654 -0.661391 0.255766 13.255889 -13.279551 -21.114157 4.629300 7.125000 0.000000 0.000000 16.163200 -51.019600 -2.451700 
42.470341 17.816947 6.148286 -134.578772 -83.457794 143.875383 -0.493804 -0.632202 -0.771434 -13.698733 -6.204398 -3.151645 -0.266861 3.426975 8.248725 -0.205305 3.186587 -1.336455 0.063400 1.624600 4.469200 -0.433822 1.197919 -1.930960 26.901973 5.139226 -6.331692 -0.501226 -5.729068 14.841350 1.750120 -13.109782 -8.432620 -0.354800 -3.826800 10.589800 2.231371 -1.456856 -0.514968 1.272325 -1.732438 -6.042324 5.414058 -1.089905 -2.352135 -10.158533 -8.361849 -11.786538 6.867873 -10.289547 10.798766 3.245200 -5.117400 8.441600 6.632625 3.110780 0.619923 -93.610141 3.889500 7.184581 9.016065 -26.548281 -2.502655 2.118030 2.243401 30.998490 13.798359 20.805795 4.079600 -7.125000 0.000000 0.000000 -14.243800 47.665800 -0.955200 -3.528937 -3.460783 -1.606653 84.502402 0.801090 18.204937 -9.340097 20.428637 -1.697541 -0.689905 0.224651 13.760608 -12.528207 -22.719361 4.638700 7.125000 0.000000 0.000000 17.627400 -52.398700 -3.293400 
42.469646 17.816451 6.145904 -134.496385 -83.484627 143.818705 -0.503793 -0.635516 -0.761491 -13.679067 -6.196736 -3.212591 -0.266387 3.427896 8.257539 -0.203982 3.176003 -1.320994 0.056700 1.536400 4.226100 -0.438737 1.188241 -1.916457 26.898275 5.149073 -6.378956 -0.502203 -5.732285 14.851884 1.751192 -13.115874 -8.447377 -0.355900 -3.832500 10.606000 1.926139 -1.495883 -0.460906 1.442963 -1.799067 -6.105991 6.062062 -1.093157 -2.537647 -10.479379 -8.256511 -11.355233 6.691684 -10.102700 10.695916 3.267400 -5.079300 8.309000 6.688382 3.066252 0.646228 -94.175745 4.187648 7.223663 9.091393 -26.764376 -2.535509 2.129792 2.245742 31.018865 13.938177 20.653422 4.085700 -7.125000 0.000000 0.000000 -14.065300 47.524200 -0.892800 -3.499673 -3.433347 -1.624059 83.922494 0.550059 18.330781 -9.346550 20.425492 -1.699815 -0.685474 0.233108 13.815844 -12.694930 -22.555057 4.676500 7.125000 0.000000 0.000000 17.388700 -52.278700 -3.194600 
